<svg width="800px" height="800px" viewBox="0 0 24 24" xmlns="http://www.w3.org/2000/svg">

<defs>

<style>.cls-1,.cls-2{fill:none;stroke:#000000;strokeLinecap:round;strokeLinejoin:bevel;strokeWidth:1.5px;}.cls-1{fill-rule:evenodd;}</style>

</defs>

<g id="ic-actions-settings">

<path class="cls-1" d="M10.42969,3.386l.08732-.2153a1.98122,1.98122,0,0,1,3.72985.16285l.06823.22209a1.98121,1.98121,0,0,0,2.66558,1.243l.214-.09049a1.98122,1.98122,0,0,1,2.52226,2.75255l-.10881.20528A1.98122,1.98122,0,0,0,20.614,10.42969l.2153.08732a1.98122,1.98122,0,0,1-.16285,3.72985l-.22209.06823a1.98121,1.98121,0,0,0-1.243,2.66558l.09049.214a1.98122,1.98122,0,0,1-2.75255,2.52226l-.20528-.10881A1.98122,1.98122,0,0,0,13.57031,20.614l-.08732.2153a1.98122,1.98122,0,0,1-3.72985-.16285l-.06823-.22209a1.98121,1.98121,0,0,0-2.66558-1.243l-.214.09049a1.98122,1.98122,0,0,1-2.52226-2.75255l.10881-.20528A1.98122,1.98122,0,0,0,3.386,13.57031l-.2153-.08732a1.98122,1.98122,0,0,1,.16285-3.72985l.22209-.06823a1.98121,1.98121,0,0,0,1.243-2.66558l-.09049-.214A1.98122,1.98122,0,0,1,7.46064,4.28309l.20528.10881A1.98122,1.98122,0,0,0,10.42969,3.386Z"/>

<circle class="cls-2" cx="12" cy="12" r="3.90957"/>

</g>

</svg>