<svg version="1.0" xmlns="http://www.w3.org/2000/svg"
 width="50.000000pt" height="50.000000pt" viewBox="0 0 50.000000 50.000000"
 preserveAspectRatio="xMidYMid meet">

<g transform="translate(0.000000,50.000000) scale(0.100000,-0.100000)"
fill="#000000" stroke="none">
<path d="M204 418 c-28 -25 -44 -32 -69 -29 -26 2 -37 -4 -54 -26 -12 -15 -35
-43 -51 -60 -32 -35 -37 -66 -18 -108 18 -41 57 -55 148 -55 l80 0 0 -40 c0
-22 5 -40 10 -40 6 0 10 18 10 40 l0 40 91 0 c87 0 92 1 120 29 46 46 33 119
-26 141 -15 6 -25 20 -29 44 -4 22 -19 46 -42 65 -29 26 -43 31 -84 31 -41 0
-55 -5 -86 -32z m81 -168 c31 -33 27 -54 -5 -25 -20 18 -20 18 -20 -33 0 -29
-4 -52 -10 -52 -5 0 -10 23 -10 52 0 51 0 51 -20 33 -32 -29 -36 -8 -5 25 16
17 32 30 35 30 3 0 19 -13 35 -30z"/>
</g>
</svg>
